<svg id="Layer_1" enable-background="new 0 0 512 512" height="512" viewBox="0 0 512 512" width="512" xmlns="http://www.w3.org/2000/svg"><g><g clip-rule="evenodd" fill-rule="evenodd"><g fill="#ff9c9b"><path d="m256 443.4v-388.6c0-24.64-20.16-44.8-44.8-44.8s-44.8 20.16-44.8 44.8v3.729c-6.571-3.033-13.887-4.729-21.6-4.729-28.498 0-51.6 23.102-51.6 51.6 0 5.973 1.018 11.708 2.885 17.044-22.963 10.685-38.885 33.959-38.885 60.956 0 20.004 8.744 37.964 22.615 50.274-25.942 12.671-43.815 39.309-43.815 70.125 0 32.738 20.171 60.759 48.76 72.328-.758 4.042-1.16 8.21-1.16 12.473 0 33.414 24.389 61.127 56.335 66.321 5.353 26.846 29.045 47.079 57.465 47.079 32.364 0 58.6-26.236 58.6-58.6z"/><path d="m256 54.8v388.6c0 32.364 26.236 58.6 58.6 58.6 28.42 0 52.112-20.233 57.465-47.079 31.946-5.194 56.335-32.907 56.335-66.321 0-4.262-.402-8.431-1.16-12.473 28.589-11.569 48.76-39.591 48.76-72.328 0-30.816-17.872-57.455-43.815-70.125 13.871-12.31 22.615-30.27 22.615-50.274 0-26.997-15.922-50.271-38.885-60.956 1.867-5.336 2.885-11.071 2.885-17.044 0-28.498-23.102-51.6-51.6-51.6-7.713 0-15.029 1.695-21.6 4.729v-3.729c0-24.64-20.16-44.8-44.8-44.8s-44.8 20.16-44.8 44.8z"/></g><g><ellipse cx="165.347" cy="185.503" fill="#ffc144" rx="20" ry="20" transform="matrix(.984 -.179 .179 .984 -30.471 32.512)"/><ellipse cx="165.347" cy="326.497" fill="#ffc144" rx="20" ry="20" transform="matrix(.984 -.179 .179 .984 -55.652 34.779)"/><path d="m216 276.001c0 11 9 20 20 20h20 20c11 0 20-9 20-20v-40.001c0-11-9-20-20-20h-20-20c-11 0-20 9-20 20z" fill="#5cd0b3"/><g fill="#ffc144"><ellipse cx="346.653" cy="185.503" rx="20" ry="20" transform="matrix(.707 -.707 .707 .707 -29.638 299.453)"/><ellipse cx="346.653" cy="326.497" rx="20" ry="20" transform="matrix(.707 -.707 .707 .707 -129.336 340.749)"/></g></g></g><g><path d="m486 303.799c0-29.417-14.255-56.128-37.938-72.41 10.751-13.554 16.737-30.456 16.737-47.989 0-27.058-14.346-52.129-37.168-66.013.776-3.93 1.168-7.938 1.168-11.987 0-33.966-27.634-61.6-61.6-61.6-4.233 0-8.397.421-12.467 1.258-4.607-25.586-27.038-45.058-53.932-45.058-18.491 0-34.871 9.204-44.8 23.272-9.929-14.068-26.309-23.272-44.8-23.272-26.895 0-49.327 19.476-53.934 45.065-1.743-.359-3.505-.642-5.281-.849-5.482-.634-10.451 3.29-11.09 8.776s3.291 10.451 8.776 11.09c4.305.501 8.483 1.672 12.421 3.475.04.019.077.043.118.062 7.854 3.62 14.292 9.492 18.616 16.981 1.852 3.208 5.213 5.002 8.669 5.002 1.696 0 3.416-.433 4.991-1.342 4.783-2.761 6.422-8.877 3.66-13.66-5.284-9.152-12.702-16.666-21.668-22.027 1.155-18.154 16.283-32.573 34.722-32.573 19.188 0 34.8 15.611 34.8 34.8v151.2h-10c-13.036 0-24.151 8.361-28.279 20h-7.446l-12.136-21.02c4.489-5.245 7.21-12.047 7.21-19.476 0-16.542-13.458-30-30-30s-30 13.458-30 30 13.458 30 30 30c1.871 0 3.7-.181 5.478-.51l15.014 26.006c1.786 3.094 5.087 5 8.66 5h11.499v20.001h-11.499c-3.573 0-6.874 1.906-8.66 5l-15.015 26.006c-1.778-.33-3.607-.51-5.478-.51-16.542 0-30 13.458-30 30s13.458 30 30 30 30-13.458 30-30c0-7.429-2.72-14.231-7.209-19.476l12.136-21.02h7.446c4.128 11.639 15.243 20 28.279 20h10v137.4c0 26.798-21.802 48.6-48.6 48.6-18.481 0-34.993-10.508-43.174-26.285 5.59-.249 11.144-1.096 16.554-2.545 5.334-1.43 8.5-6.913 7.071-12.248-1.429-5.334-6.914-8.501-12.248-7.071-7.81 2.093-16.069 2.505-24.052 1.196-.024-.004-.048-.004-.072-.008-27.482-4.497-47.483-27.818-47.862-55.637 6.652 1.586 13.467 2.398 20.382 2.398 7.687 0 15.35-1.009 22.776-2.999 5.334-1.429 8.5-6.913 7.071-12.248-1.43-5.334-6.91-8.502-12.248-7.071-5.738 1.537-11.659 2.317-17.599 2.317-8.776 0-17.351-1.667-25.486-4.957-.066-.027-.134-.044-.2-.07-25.71-10.497-42.313-35.189-42.313-62.974 0-26.14 14.57-49.515 38.035-61.053.055-.026.112-.043.167-.07 3.903-1.903 8.007-3.437 12.198-4.56 5.335-1.429 8.501-6.913 7.071-12.247-1.429-5.335-6.912-8.501-12.247-7.071-3.109.833-6.173 1.86-9.18 3.032-9.496-10.473-14.844-24.169-14.844-38.43 0-18.795 9.347-36.295 24.451-46.888 5.367 9.165 13.04 16.861 22.349 22.235 1.575.909 3.294 1.342 4.991 1.342 3.456 0 6.817-1.794 8.669-5.002 2.762-4.783 1.123-10.899-3.66-13.66-8.621-4.977-15.178-12.893-18.466-22.289-.015-.043-.035-.082-.051-.124-.978-2.826-1.654-5.765-2.001-8.739-.64-5.485-5.609-9.411-11.091-8.774-5.486.64-9.414 5.606-8.774 11.091.188 1.606.438 3.207.752 4.793-22.823 13.884-37.17 38.957-37.17 66.014 0 17.534 5.986 34.435 16.738 47.989-23.682 16.283-37.937 42.995-37.937 72.411 0 33.411 18.548 63.369 47.87 78.34-.18 2.15-.27 4.308-.27 6.461 0 18.437 6.605 36.285 18.6 50.257 10.395 12.109 24.263 20.68 39.575 24.571 8.69 28.51 35.288 48.572 65.625 48.572 24.786 0 46.544-13.212 58.6-32.966 12.056 19.754 33.814 32.966 58.6 32.966 30.337 0 56.936-20.062 65.625-48.572 15.312-3.891 29.18-12.462 39.575-24.571 11.994-13.972 18.6-31.82 18.6-50.257 0-2.153-.09-4.311-.27-6.461 29.322-14.971 47.87-44.929 47.87-78.34zm-330.652-118.296c0-5.514 4.486-10 10-10s10 4.486 10 10-4.486 10-10 10-10-4.486-10-10zm10 150.994c-5.514 0-10-4.486-10-10s4.486-10 10-10 10 4.486 10 10-4.486 10-10 10zm70.652-50.497c-5.514 0-10-4.486-10-10v-40c0-5.514 4.486-10 10-10h40c5.514 0 10 4.486 10 10v40.001c0 5.514-4.486 10-10 10h-40zm187.691 80.771c-.068.026-.138.044-.206.071-8.136 3.289-16.71 4.957-25.486 4.957-5.94 0-11.861-.78-17.6-2.317-5.336-1.429-10.817 1.737-12.247 7.071-1.43 5.335 1.736 10.818 7.071 12.248 7.425 1.99 15.088 2.999 22.775 2.999 6.915 0 13.73-.811 20.383-2.398-.379 27.819-20.379 51.14-47.861 55.637-.025.004-.049.004-.074.008-7.979 1.308-16.241.896-24.052-1.196-5.336-1.43-10.817 1.737-12.247 7.071-1.43 5.335 1.736 10.818 7.071 12.248 5.41 1.45 10.965 2.297 16.555 2.545-8.18 15.777-24.692 26.285-43.173 26.285-26.798 0-48.6-21.802-48.6-48.6v-137.4h10c13.036 0 24.152-8.361 28.28-20h7.445l12.137 21.02c-4.489 5.245-7.209 12.047-7.209 19.476 0 16.542 13.458 30 30 30s30-13.458 30-30-13.458-30-30-30c-1.872 0-3.701.181-5.479.51l-15.015-26.006c-1.786-3.094-5.088-5-8.66-5h-11.499v-20h11.498c3.572 0 6.874-1.906 8.66-5l15.016-26.007c1.778.33 3.607.51 5.478.51 16.542 0 30-13.458 30-30s-13.458-30-30-30-30 13.458-30 30c0 7.429 2.72 14.23 7.209 19.476l-12.136 21.021h-7.445c-4.128-11.639-15.243-20-28.28-20h-10v-151.2c0-19.188 15.611-34.8 34.8-34.8 18.44 0 33.568 14.419 34.721 32.572-8.966 5.362-16.385 12.876-21.668 22.027-2.762 4.783-1.123 10.899 3.66 13.66 1.575.91 3.294 1.342 4.99 1.342 3.456 0 6.818-1.794 8.67-5.002 4.324-7.489 10.761-13.361 18.616-16.981.036-.017.069-.038.105-.055 5.444-2.496 11.266-3.764 17.305-3.764 22.938 0 41.6 18.662 41.6 41.6 0 4.663-.769 9.239-2.279 13.605-.017.046-.038.088-.054.134-3.288 9.396-9.847 17.312-18.467 22.289-4.783 2.761-6.422 8.877-3.66 13.66 1.853 3.208 5.213 5.002 8.67 5.002 1.696 0 3.416-.433 4.99-1.342 9.309-5.374 16.982-13.07 22.349-22.235 15.104 10.593 24.451 28.093 24.451 46.888 0 14.261-5.349 27.956-14.844 38.43-3.007-1.172-6.071-2.199-9.179-3.032-5.336-1.431-10.817 1.737-12.247 7.071s1.736 10.818 7.071 12.247c4.189 1.123 8.294 2.657 12.198 4.56.054.026.11.044.165.069 23.466 11.538 38.037 34.914 38.037 61.054 0 27.783-16.601 52.475-42.309 62.972zm-77.038-50.274c5.514 0 10 4.486 10 10s-4.486 10-10 10-10-4.486-10-10 4.486-10 10-10zm-10-130.994c0-5.514 4.486-10 10-10s10 4.486 10 10-4.486 10-10 10-10-4.486-10-10z"/><path d="m227.46 122.467c3.905-3.905 3.905-10.237 0-14.143s-10.237-3.905-14.143 0c-5.835 5.835-13.594 9.049-21.847 9.049s-16.012-3.214-21.847-9.049c-3.905-3.905-10.237-3.905-14.143 0s-3.905 10.237 0 14.143c9.613 9.613 22.394 14.907 35.989 14.907s26.378-5.294 35.991-14.907z"/><path d="m342.375 108.325c-5.835 5.835-13.594 9.049-21.847 9.049-8.252 0-16.011-3.214-21.847-9.049-3.906-3.905-10.238-3.905-14.143 0s-3.905 10.237 0 14.142c9.613 9.613 22.395 14.907 35.989 14.907 13.596 0 26.377-5.294 35.989-14.907 3.905-3.905 3.905-10.237 0-14.142-3.904-3.906-10.236-3.906-14.141 0z"/><path d="m171.717 417.931c5.958-1.594 12.18-.776 17.521 2.307 5.341 3.084 9.162 8.063 10.759 14.021 1.197 4.468 5.237 7.414 9.653 7.414.856 0 1.728-.111 2.595-.343 5.334-1.429 8.5-6.913 7.071-12.248-2.979-11.118-10.109-20.41-20.077-26.165-9.967-5.754-21.579-7.283-32.697-4.305-5.334 1.429-8.5 6.913-7.071 12.248 1.428 5.334 6.91 8.501 12.246 7.071z"/><path d="m345.459 398.613c-11.116-2.979-22.73-1.451-32.697 4.305-9.968 5.755-17.099 15.047-20.077 26.165-1.43 5.335 1.736 10.818 7.071 12.248.867.232 1.737.343 2.594.343 4.415 0 8.456-2.947 9.653-7.414 1.597-5.958 5.417-10.937 10.759-14.021 5.341-3.084 11.563-3.903 17.521-2.307 5.338 1.432 10.817-1.737 12.247-7.071 1.43-5.336-1.736-10.819-7.071-12.248z"/><path d="m108.313 78.913c5.523 0 10-4.477 10-10s-4.477-10-10-10h-.007c-5.523 0-9.996 4.477-9.996 10s4.481 10 10.003 10z"/></g></g></svg>