<?xml version="1.0" encoding="iso-8859-1"?>
<!-- Generator: Adobe Illustrator 19.0.0, SVG Export Plug-In . SVG Version: 6.00 Build 0)  -->
<svg version="1.1" id="Capa_1" xmlns="http://www.w3.org/2000/svg" xmlns:xlink="http://www.w3.org/1999/xlink" x="0px" y="0px"
	 viewBox="0 0 512 512" style="enable-background:new 0 0 512 512;" xml:space="preserve">
<circle style="fill:#A0E892;" cx="50" cy="462" r="40"/>
<circle style="fill:#F25353;" cx="256" cy="462" r="40"/>
<circle style="fill:#FEB756;" cx="462" cy="462" r="40"/>
<rect x="104" y="126" style="fill:#6EA3D3;" width="304" height="48"/>
<path style="fill:#D0E6EF;" d="M92,10h328c11.046,0,20,8.954,20,20v76c0,11.046-8.954,20-20,20H92c-11.046,0-20-8.954-20-20V30
	C72,18.954,80.954,10,92,10z"/>
<g>
	<path style="fill:#FFFFFF;" d="M92,174h328c11.046,0,20,8.954,20,20v76c0,11.046-8.954,20-20,20H92c-11.046,0-20-8.954-20-20v-76
		C72,182.954,80.954,174,92,174z"/>
	<circle style="fill:#FFFFFF;" cx="216" cy="69.1" r="20"/>
	<circle style="fill:#FFFFFF;" cx="136" cy="69.1" r="20"/>
</g>
<g>
	<circle style="fill:#6EA3D3;" cx="216" cy="232" r="20"/>
	<circle style="fill:#6EA3D3;" cx="136" cy="232" r="20"/>
</g>
<path d="M50,412c-27.57,0-50,22.43-50,50s22.43,50,50,50s50-22.43,50-50S77.571,412,50,412z M50,492c-16.542,0-30-13.458-30-30
	s13.458-30,30-30s30,13.458,30,30S66.542,492,50,492z"/>
<path d="M256,412c-27.57,0-50,22.43-50,50s22.43,50,50,50s50-22.43,50-50S283.571,412,256,412z M256,492c-16.542,0-30-13.458-30-30
	s13.458-30,30-30s30,13.458,30,30S272.542,492,256,492z"/>
<path d="M462,412c-27.57,0-50,22.43-50,50s22.43,50,50,50s50-22.43,50-50S489.57,412,462,412z M462,492c-16.542,0-30-13.458-30-30
	s13.458-30,30-30s30,13.458,30,30S478.542,492,462,492z"/>
<path d="M216,99.096c16.542,0,30-13.458,30-30s-13.458-30-30-30s-30,13.458-30,30S199.458,99.096,216,99.096z M216,59.096
	c5.514,0,10,4.486,10,10s-4.486,10-10,10s-10-4.486-10-10S210.487,59.096,216,59.096z"/>
<path d="M316.333,79.096H396c5.522,0,10-4.477,10-10s-4.478-10-10-10h-79.667c-5.522,0-10,4.477-10,10
	S310.811,79.096,316.333,79.096z"/>
<path d="M281,79.1c2.63,0,5.21-1.07,7.069-2.93C289.93,74.3,291,71.73,291,69.1c0-2.64-1.07-5.21-2.931-7.07
	c-1.859-1.87-4.439-2.93-7.069-2.93s-5.21,1.06-7.07,2.93c-1.86,1.86-2.93,4.43-2.93,7.07c0,2.63,1.069,5.2,2.93,7.07
	C275.791,78.03,278.371,79.1,281,79.1z"/>
<path d="M136,99.096c16.542,0,30-13.458,30-30s-13.458-30-30-30s-30,13.458-30,30S119.458,99.096,136,99.096z M136,59.096
	c5.514,0,10,4.486,10,10s-4.486,10-10,10s-10-4.486-10-10S130.487,59.096,136,59.096z"/>
<path d="M216,262c16.542,0,30-13.458,30-30s-13.458-30-30-30s-30,13.458-30,30S199.458,262,216,262z M216,222
	c5.514,0,10,4.486,10,10s-4.486,10-10,10s-10-4.486-10-10S210.487,222,216,222z"/>
<path d="M136,262c16.542,0,30-13.458,30-30s-13.458-30-30-30s-30,13.458-30,30S119.458,262,136,262z M136,222
	c5.514,0,10,4.486,10,10s-4.486,10-10,10s-10-4.486-10-10S130.487,222,136,222z"/>
<path d="M92,300h328c16.542,0,30-13.458,30-30v-76c0-16.542-13.458-30-30-30h-2v-28h2c16.542,0,30-13.458,30-30V30
	c0-16.542-13.458-30-30-30H92C75.458,0,62,13.458,62,30v76c0,16.542,13.458,30,30,30h2v28h-2c-16.542,0-30,13.458-30,30v76
	C62,286.542,75.458,300,92,300z M82,106V30c0-5.514,4.486-10,10-10h328c5.514,0,10,4.486,10,10v76c0,5.514-4.486,10-10,10h-12H104
	H92C86.487,116,82,111.514,82,106z M114,136h284v28H114V136z M82,194c0-5.514,4.486-10,10-10h12h304h12c5.514,0,10,4.486,10,10v76
	c0,5.514-4.486,10-10,10H92c-5.514,0-10-4.486-10-10V194z"/>
<path d="M316.333,242H396c5.522,0,10-4.477,10-10s-4.478-10-10-10h-79.667c-5.522,0-10,4.477-10,10S310.811,242,316.333,242z"/>
<path d="M281,242c2.63,0,5.21-1.07,7.069-2.93c1.86-1.86,2.931-4.44,2.931-7.07s-1.07-5.21-2.931-7.07
	C286.21,223.07,283.63,222,281,222s-5.21,1.07-7.07,2.93c-1.86,1.86-2.93,4.44-2.93,7.07s1.069,5.21,2.93,7.07S278.371,242,281,242z
	"/>
<path d="M50.001,390.5c5.522,0,10-4.477,10-10V375H246v5.5c0,5.523,4.478,10,10,10s10-4.477,10-10V375h186v5.5
	c0,5.523,4.478,10,10,10s10-4.477,10-10V365c0-5.523-4.478-10-10-10H266v-19.967c0-5.523-4.478-10-10-10s-10,4.477-10,10V355H50.001
	c-5.522,0-10,4.477-10,10v15.5C40.001,386.023,44.479,390.5,50.001,390.5z"/>
<g>
</g>
<g>
</g>
<g>
</g>
<g>
</g>
<g>
</g>
<g>
</g>
<g>
</g>
<g>
</g>
<g>
</g>
<g>
</g>
<g>
</g>
<g>
</g>
<g>
</g>
<g>
</g>
<g>
</g>
</svg>
